# xmcd
#
# Track frame offsets:
#	150
#	67938
#	85608
#	123181
#	137740
#	165816
#	216530
#	229997
#	240830
#	257474
#	282965
#	308734
#
# Disc length: 4195
#
# Revision: 1
# Processed by: cddbd v1.5.1PL0 Copyright (c) Steve Scherf et al.
# Submitted via: ExactAudioCopy v0.90b4
# Normalized: r0:DSETVAR1
#
DISCID=9510610c
DTITLE=Various Artist - Bolero - Spanische Feste - CD1
DYEAR=2002
DGENRE=Folk
TTITLE0=Ravel - Bolero
TTITLE1=Lara - Granada
TTITLE2=De Sarasate - Zigeunerweisen op.20
TTITLE3=Tarrega - Recuerdos de la Alhambra
TTITLE4=Chabrier - España
TTITLE5=Rodrigo - Concierto de Aranjuez
TTITLE6=De Falla - El sombrero de tres picos
TTITLE7=Tarrega - Tango "Maria"
TTITLE8=Lecuona - Siboney
TTITLE9=Traditional - Flamenco "Soleares"
TTITLE10=Giménez - La Boda de Luis Alonso
TTITLE11=Penella - El Gato Montés
EXTD=
EXTT0=
EXTT1=
EXTT2=
EXTT3=
EXTT4=
EXTT5=
EXTT6=
EXTT7=
EXTT8=
EXTT9=
EXTT10=
EXTT11=
PLAYORDER=
